PathFileType	4	(X/Y/Z)	pose_F01_0-97.trc
DataRate	CameraRate	NumFrames	NumMarkers	Units	OrigDataRate	OrigDataStartFrame	OrigNumFrames
60	60	7	21	m	60	60	97
Frame#	Time	CHip			RHip			RKnee			RAnkle			RBigToe			RSmallToe			RHeel			LHip			LKnee			LAnkle			LBigToe			LSmallToe			LHeel			Neck			Nose			RShoulder			RElbow			RWrist			LShoulder			LElbow			LWrist			
		X1	Y1	Z1	X2	Y2	Z2	X3	Y3	Z3	X4	Y4	Z4	X5	Y5	Z5	X6	Y6	Z6	X7	Y7	Z7	X8	Y8	Z8	X9	Y9	Z9	X10	Y10	Z10	X11	Y11	Z11	X12	Y12	Z12	X13	Y13	Z13	X14	Y14	Z14	X15	Y15	Z15	X16	Y16	Z16	X17	Y17	Z17	X18	Y18	Z18	X19	Y19	Z19	X20	Y20	Z20	X21	Y21	Z21	
60	1.0	-0.24764313617868947	1.8116746994481079	-0.63367898791283	-0.2618062721085339	1.8090134739358572	-0.5677102100651114	-0.247082884320397	1.6902665181873187	-0.5215055255371324	-0.34495044188022944	1.572220395376698	-0.5168281292876741	-0.28367235936083984	1.5291750024250224	-0.5409444730114613	-0.2958038482412867	1.549270226348939	-0.5026052097615773	-0.4819780887658177	1.5393766824115518	-0.9668033884165393	-0.2336097446879788	1.8152612208481314	-0.7060985892897911	-0.28163165273882623	1.7077620059354484	-0.6362609226418945	-0.24947342236511336	1.5384958399866855	-0.5240607035241428	-0.35152076211316163	1.514110300416362	-1.048180050711928	-0.34676915498643635	1.523902071143449	-1.0344293003277045	-0.4048451767261316	1.5387190570213976	-0.9912069379363051	-0.24814723317964793	1.9828638202642146	-0.6610420195971032	-0.21038169684137065	2.0517885852691427	-0.6366548216972426	-0.26186236297944665	1.9824760983330507	-0.5685598982327252	-0.27725104815046725	1.9008540747622953	-0.5271697494972297	-0.2381971436190897	1.8769939033795482	-0.5603765941033992	-0.2299216461019652	1.9843962808191276	-0.7552744604622973	-0.8826333491821985	1.830194325712532	-0.15484763961406606	-0.16321979932656913	1.875802328250174	-0.7231456905596966
61	1.0166666666666666	-0.23498968485518268	1.817866332870476	-0.642721801081183	-0.2506946574064304	1.816549256919418	-0.5710359426480219	-0.2369536511453065	1.6904012272136117	-0.5242280561783453	-0.34495044188022944	1.572220395376698	-0.5168281292876741	-0.28367235936083984	1.5291750024250224	-0.5409444730114613	-0.2958038482412867	1.549270226348939	-0.5026052097615773	-0.4819780887658177	1.5393766824115518	-0.9668033884165393	-0.22276723674256127	1.8218004508249135	-0.7093835784937235	-0.28163165273882623	1.7077620059354484	-0.6362609226418945	-0.24947342236511336	1.5384958399866855	-0.5240607035241428	-0.35152076211316163	1.514110300416362	-1.048180050711928	-0.34676915498643635	1.523902071143449	-1.0344293003277045	-0.4048451767261316	1.5387190570213976	-0.9912069379363051	-0.23632032503482264	1.985572210975688	-0.6692921766425551	-0.19642155382434	2.054699995934149	-0.6470164434479826	-0.250280160283061	1.9826279759974132	-0.5759917457965866	-0.2630929560338682	1.900035720848143	-0.5173376450728076	-0.2251093122983919	1.8812571821683164	-0.5658757170600172	-0.21981074065913822	1.9895405990964747	-0.7619267861038685	-0.9034442696184976	1.832175646912963	-0.12505512772068048	-0.15557374257484208	1.8814153173393378	-0.7303925689871865
62	1.0333333333333334	-0.2259849803718879	1.8211657263919827	-0.63995984555423	-0.23515903740927865	1.8186879524925255	-0.5751247164149352	-0.22682441797021602	1.6905359362399046	-0.5269505868195583	-0.34495044188022944	1.572220395376698	-0.5168281292876741	-0.28367235936083984	1.5291750024250224	-0.5409444730114613	-0.2958038482412867	1.549270226348939	-0.5026052097615773	-0.4819780887658177	1.5393766824115518	-0.9668033884165393	-0.21470685525355573	1.8220176856305004	-0.7015407512515515	-0.28163165273882623	1.7077620059354484	-0.6362609226418945	-0.24947342236511336	1.5384958399866855	-0.5240607035241428	-0.35152076211316163	1.514110300416362	-1.048180050711928	-0.34676915498643635	1.523902071143449	-1.0344293003277045	-0.4048451767261316	1.5387190570213976	-0.9912069379363051	-0.22400155908473718	1.9867363754558398	-0.6658423517477408	-0.18915911026798582	2.0548132084787296	-0.6513142591712688	-0.24019902404354476	1.9837381693652067	-0.5703573057663832	-0.25169287974996357	1.9036403326229727	-0.5169263891845093	-0.1995450067422552	1.880028656838284	-0.5838225022049965	-0.20730516249038017	1.9885520909643066	-0.7585319538684696	-0.9294513843905745	1.8319059246692375	-0.08552495729727778	-0.1492951356253224	1.8832951479427567	-0.731664978195643
63	1.05	-0.217952928704366	1.821411505048249	-0.631730648653876	-0.22632427239149655	1.821581262449414	-0.5635178320147897	-0.21669518479512553	1.6906706452661977	-0.5296731174607713	-0.34495044188022944	1.572220395376698	-0.5168281292876741	-0.28367235936083984	1.5291750024250224	-0.5409444730114613	-0.2958038482412867	1.549270226348939	-0.5026052097615773	-0.4819780887658177	1.5393766824115518	-0.9668033884165393	-0.20418979231241047	1.8244423343835272	-0.7042166753056365	-0.28163165273882623	1.7077620059354484	-0.6362609226418945	-0.24947342236511336	1.5384958399866855	-0.5240607035241428	-0.35152076211316163	1.514110300416362	-1.048180050711928	-0.34676915498643635	1.523902071143449	-1.0344293003277045	-0.4048451767261316	1.5387190570213976	-0.9912069379363051	-0.21893688287008067	1.9865236883778161	-0.6588872111610946	-0.17384099849597667	2.054637086716328	-0.6557567086695324	-0.23098348361461865	1.9850111702070743	-0.5675568868783103	-0.2458982026117942	1.9032406381065063	-0.506445922135678	-0.18568601017347292	1.8753285055162998	-0.5695446915996791	-0.2003544008218928	1.989475903962953	-0.7541697815470394	-0.985004049150079	1.83255081380862	-0.0029518148682049993	-0.13654177568251413	1.8724902304493038	-0.7385465469189051
64	1.0666666666666667	-0.2057184162409601	1.8225071693826096	-0.6279468011638918	-0.2213534029821929	1.8189358168248193	-0.5557749174081899	-0.20175046299529625	1.6911079183605475	-0.5235021564222837	-0.34495044188022944	1.572220395376698	-0.5168281292876741	-0.28367235936083984	1.5291750024250224	-0.5409444730114613	-0.17942175529046553	1.5360432592508406	-0.4124116019972925	-0.4819780887658177	1.5393766824115518	-0.9668033884165393	-0.19450724838344552	1.824131990149209	-0.6895982621583667	-0.28163165273882623	1.7077620059354484	-0.6362609226418945	-0.24947342236511336	1.5384958399866855	-0.5240607035241428	-0.35152076211316163	1.514110300416362	-1.048180050711928	-0.34676915498643635	1.523902071143449	-1.0344293003277045	-0.4048451767261316	1.5387190570213976	-0.9912069379363051	-0.204596750499897	1.9863562913430277	-0.6576351432261934	-0.1681684853516605	2.0515759557295303	-0.6455056831291823	-0.2189264279289027	1.9834686164554547	-0.5633712436628824	-0.23834730767764145	1.9065385726161672	-0.5014280377756556	-0.17350873085727098	1.875238184772182	-0.548037750283479	-0.18492765805459388	1.987931439595231	-0.7500246627862625	-0.1866752812179146	1.9028263715006903	-0.7733770077699164	-0.1295548921754835	1.856172887720264	-0.7267333974921514
65	1.0833333333333333	-0.19590329092263098	1.8217530506934236	-0.6128960015400718	-0.20483166225357283	1.8194096379436984	-0.5474533599220123	-0.19328927808725235	1.688867073221248	-0.5059081642158909	-0.34495044188022944	1.572220395376698	-0.5168281292876741	-0.28367235936083984	1.5291750024250224	-0.5409444730114613	-0.18325433937225513	1.5329995017183617	-0.4046545135013192	-0.4819780887658177	1.5393766824115518	-0.9668033884165393	-0.1881309314316851	1.823194417589352	-0.6673022004604163	-0.28163165273882623	1.7077620059354484	-0.6362609226418945	-0.24947342236511336	1.5384958399866855	-0.5240607035241428	-0.35152076211316163	1.514110300416362	-1.048180050711928	-0.34676915498643635	1.523902071143449	-1.0344293003277045	-0.4048451767261316	1.5387190570213976	-0.9912069379363051	-0.19607663322678928	1.9831522503467751	-0.6374469604782516	-0.15409224194957802	2.0502219399549304	-0.6439368001585593	-0.21193010665331039	1.9816232653489976	-0.5492221827394959	-0.2238417394797086	1.90362477511155	-0.49006099511903717	-0.15904100429856521	1.8708164922735828	-0.5310848979310347	-0.17741346204350067	1.9862836111259383	-0.7331349460274733	-0.181912508929926	1.904603109975158	-0.757481274950617	-0.1295175445667534	1.8528506613614069	-0.7229660478785443
66	1.1	-0.18944810344312657	1.821634613384097	-0.5902486018804596	-0.19618363292287627	1.8201264200689269	-0.5265220854756725	-0.18853322728115063	1.690399195277767	-0.497920209453786	-0.34495044188022944	1.572220395376698	-0.5168281292876741	-0.28367235936083984	1.5291750024250224	-0.5409444730114613	-0.18708692345404476	1.5299557441858829	-0.3968974250053459	-0.4819780887658177	1.5393766824115518	-0.9668033884165393	-0.18238034443188808	1.8220956913515478	-0.6565960215209986	-0.194289770977654	1.686898940534961	-0.6697133179839507	-0.24947342236511336	1.5384958399866855	-0.5240607035241428	-0.35152076211316163	1.514110300416362	-1.048180050711928	-0.34676915498643635	1.523902071143449	-1.0344293003277045	-0.4048451767261316	1.5387190570213976	-0.9912069379363051	-0.18847983240793792	1.9800543661151027	-0.6200157885769264	-0.14630285451384648	2.0472430902828953	-0.6350265765610851	-0.20219801987129912	1.9787459192605543	-0.5341251624867528	-0.21296753071154026	1.904483860286146	-0.480569820233713	-0.14457327773985942	1.8663947997749837	-0.5141320455785904	-0.16938406544331885	1.9808450518768441	-0.7127376819921146	-0.17366519422208077	1.9003376802975283	-0.7378080142565038	-0.12948019695802332	1.8495284350025496	-0.7191986982649372
